<?xml version="1.0" encoding="UTF-8"?><svg id="Layer_1" xmlns="http://www.w3.org/2000/svg" viewBox="0 0 1909.85 221.12"><defs><style>.cls-1{fill:#fff;stroke-width:0px;}</style></defs><path class="cls-1" d="m0,24.4V0h174.16v24.4h-72.59v193.37h-28.97V24.4H0Z"/><path class="cls-1" d="m271.51,207.71c-11.79,8.95-26.64,13.42-44.53,13.42-12.61,0-23.54-2.03-32.79-6.1-9.25-4.06-17.03-9.76-23.33-17.08-6.3-7.32-11.03-16.06-14.18-26.23-3.15-10.17-4.93-21.25-5.34-33.24,0-12,1.83-22.98,5.49-32.94,3.66-9.96,8.79-18.6,15.4-25.92,6.6-7.32,14.44-13.01,23.48-17.08,9.05-4.06,18.96-6.1,29.74-6.1,14.03,0,25.67,2.9,34.92,8.69,9.25,5.79,16.67,13.17,22.27,22.11,5.59,8.95,9.45,18.71,11.59,29.28,2.13,10.57,3,20.64,2.59,30.19h-118.03c-.21,6.92.61,13.47,2.44,19.67,1.83,6.21,4.77,11.69,8.84,16.47,4.07,4.78,9.25,8.59,15.56,11.44,6.3,2.85,13.73,4.27,22.27,4.27,10.98,0,19.98-2.54,26.99-7.62,7.02-5.08,11.64-12.81,13.88-23.18h25.62c-3.46,17.69-11.08,31.01-22.88,39.96Zm-6.25-101.26c-2.34-5.49-5.49-10.22-9.46-14.18-3.96-3.97-8.64-7.12-14.03-9.46-5.39-2.34-11.34-3.51-17.84-3.51s-12.76,1.17-18.15,3.51c-5.39,2.34-10.02,5.54-13.88,9.61-3.86,4.07-6.92,8.8-9.15,14.18-2.24,5.39-3.56,11.13-3.96,17.23h90.58c-.41-6.1-1.78-11.9-4.12-17.39Z"/><path class="cls-1" d="m344.31,60.08v25.01h.61c10.78-19.11,27.86-28.67,51.24-28.67,10.37,0,19.01,1.43,25.92,4.27,6.91,2.85,12.51,6.81,16.78,11.9,4.27,5.08,7.27,11.13,9,18.15,1.73,7.02,2.59,14.79,2.59,23.33v103.7h-25.93v-106.75c0-9.76-2.85-17.48-8.54-23.18-5.7-5.69-13.52-8.54-23.49-8.54-7.93,0-14.79,1.22-20.59,3.66s-10.63,5.9-14.49,10.37c-3.87,4.48-6.76,9.71-8.69,15.71-1.93,6-2.9,12.56-2.9,19.67v89.06h-25.92V60.08h24.4Z"/><path class="cls-1" d="m504.07,182.54c2.44,3.96,5.64,7.12,9.61,9.46,3.96,2.34,8.44,4.02,13.42,5.03,4.98,1.02,10.11,1.53,15.4,1.53,4.06,0,8.33-.31,12.81-.92,4.47-.61,8.59-1.73,12.35-3.35,3.76-1.62,6.86-4.01,9.3-7.17,2.44-3.15,3.66-7.17,3.66-12.05,0-6.71-2.54-11.79-7.62-15.25-5.08-3.46-11.44-6.25-19.06-8.39-7.62-2.14-15.91-4.06-24.86-5.79-8.95-1.73-17.23-4.17-24.86-7.32-7.62-3.15-13.98-7.57-19.06-13.27-5.08-5.69-7.62-13.62-7.62-23.79,0-7.93,1.78-14.74,5.34-20.44,3.56-5.69,8.13-10.32,13.73-13.88,5.59-3.56,11.9-6.2,18.91-7.93,7.01-1.73,13.98-2.59,20.89-2.59,8.95,0,17.18.76,24.71,2.29,7.52,1.52,14.18,4.17,19.98,7.93,5.79,3.76,10.42,8.84,13.88,15.25,3.46,6.4,5.49,14.39,6.1,23.94h-25.92c-.41-5.08-1.73-9.3-3.97-12.66-2.24-3.35-5.08-6.05-8.54-8.08-3.46-2.03-7.27-3.51-11.44-4.42-4.17-.92-8.39-1.37-12.66-1.37-3.86,0-7.78.31-11.74.92-3.96.61-7.58,1.68-10.83,3.2-3.26,1.52-5.9,3.56-7.93,6.1-2.04,2.54-3.05,5.85-3.05,9.91,0,4.47,1.57,8.19,4.73,11.13,3.15,2.95,7.17,5.39,12.05,7.32,4.88,1.94,10.37,3.56,16.47,4.88,6.1,1.32,12.2,2.7,18.3,4.12,6.5,1.43,12.86,3.15,19.06,5.19,6.2,2.04,11.69,4.73,16.47,8.08,4.78,3.35,8.64,7.58,11.59,12.66,2.94,5.08,4.42,11.39,4.42,18.91,0,9.56-1.98,17.49-5.95,23.79-3.96,6.31-9.15,11.39-15.55,15.25-6.41,3.87-13.62,6.56-21.66,8.08-8.03,1.52-16.01,2.29-23.94,2.29-8.75,0-17.08-.92-25.01-2.75-7.93-1.83-14.95-4.83-21.05-9-6.1-4.17-10.98-9.65-14.64-16.47-3.66-6.81-5.7-15.1-6.1-24.86h25.92c.2,5.69,1.52,10.52,3.97,14.49Z"/><path class="cls-1" d="m627.65,106.6c3.25-10.06,8.13-18.81,14.64-26.23,6.5-7.42,14.54-13.27,24.1-17.54,9.55-4.27,20.53-6.41,32.94-6.41s23.64,2.14,33.09,6.41,17.43,10.12,23.94,17.54c6.51,7.42,11.39,16.17,14.64,26.23,3.25,10.06,4.88,20.89,4.88,32.48s-1.63,22.37-4.88,32.33c-3.25,9.96-8.13,18.66-14.64,26.08-6.51,7.43-14.49,13.22-23.94,17.39s-20.49,6.25-33.09,6.25-23.39-2.09-32.94-6.25c-9.56-4.17-17.59-9.96-24.1-17.39-6.51-7.42-11.39-16.11-14.64-26.08-3.25-9.96-4.88-20.74-4.88-32.33s1.62-22.42,4.88-32.48Zm26.38,57.95c2.54,7.42,6.05,13.62,10.52,18.6,4.47,4.98,9.71,8.8,15.71,11.44,6,2.65,12.35,3.97,19.06,3.97s13.06-1.32,19.06-3.97c6-2.64,11.23-6.45,15.71-11.44,4.47-4.98,7.98-11.18,10.52-18.6,2.54-7.42,3.81-15.91,3.81-25.47s-1.27-18.04-3.81-25.47c-2.54-7.42-6.05-13.67-10.52-18.76-4.48-5.08-9.71-8.94-15.71-11.59-6-2.64-12.35-3.97-19.06-3.97s-13.07,1.33-19.06,3.97c-6,2.65-11.24,6.51-15.71,11.59-4.48,5.08-7.98,11.34-10.52,18.76-2.54,7.43-3.81,15.91-3.81,25.47s1.27,18.05,3.81,25.47Z"/><path class="cls-1" d="m824.98,60.08v33.25h.61c6.3-12.81,14.03-22.27,23.18-28.37,9.15-6.1,20.74-8.94,34.77-8.54v27.45c-10.37,0-19.21,1.42-26.54,4.27-7.32,2.85-13.22,7.02-17.69,12.5-4.47,5.49-7.73,12.15-9.76,19.98-2.04,7.83-3.05,16.83-3.05,26.99v70.15h-25.92V60.08h24.4Z"/><path class="cls-1" d="m850.82,24.4V0h174.15v24.4h-72.59v193.37h-28.97V24.4h-72.59Z"/><path class="cls-1" d="m1007.03,106.6c3.25-10.06,8.13-18.81,14.64-26.23,6.5-7.42,14.54-13.27,24.09-17.54,9.56-4.27,20.54-6.41,32.94-6.41s23.64,2.14,33.09,6.41c9.45,4.27,17.43,10.12,23.94,17.54,6.5,7.42,11.38,16.17,14.64,26.23,3.25,10.06,4.88,20.89,4.88,32.48s-1.63,22.37-4.88,32.33c-3.25,9.96-8.13,18.66-14.64,26.08-6.51,7.43-14.49,13.22-23.94,17.39-9.46,4.17-20.49,6.25-33.09,6.25s-23.38-2.09-32.94-6.25c-9.56-4.17-17.59-9.96-24.09-17.39-6.51-7.42-11.39-16.11-14.64-26.08-3.25-9.96-4.88-20.74-4.88-32.33s1.62-22.42,4.88-32.48Zm26.38,57.95c2.54,7.42,6.05,13.62,10.52,18.6,4.47,4.98,9.71,8.8,15.71,11.44,6,2.65,12.35,3.97,19.06,3.97s13.06-1.32,19.06-3.97c6-2.64,11.23-6.45,15.71-11.44,4.47-4.98,7.98-11.18,10.52-18.6,2.54-7.42,3.81-15.91,3.81-25.47s-1.27-18.04-3.81-25.47c-2.54-7.42-6.05-13.67-10.52-18.76-4.47-5.08-9.71-8.94-15.71-11.59-6-2.64-12.35-3.97-19.06-3.97s-13.07,1.33-19.06,3.97c-6,2.65-11.24,6.51-15.71,11.59-4.47,5.08-7.98,11.34-10.52,18.76-2.54,7.43-3.81,15.91-3.81,25.47s1.27,18.05,3.81,25.47Z"/><path class="cls-1" d="m1204.37,60.08v33.25h.61c6.3-12.81,14.03-22.27,23.18-28.37,9.15-6.1,20.74-8.94,34.77-8.54v27.45c-10.37,0-19.22,1.42-26.54,4.27-7.32,2.85-13.22,7.02-17.69,12.5-4.47,5.49-7.73,12.15-9.76,19.98-2.04,7.83-3.05,16.83-3.05,26.99v70.15h-25.92V60.08h24.4Z"/><path class="cls-1" d="m1302.36,60.08v33.25h.61c6.3-12.81,14.03-22.27,23.18-28.37,9.15-6.1,20.74-8.94,34.77-8.54v27.45c-10.37,0-19.22,1.42-26.54,4.27-7.32,2.85-13.22,7.02-17.69,12.5-4.47,5.49-7.73,12.15-9.76,19.98-2.04,7.83-3.05,16.83-3.05,26.99v70.15h-25.92V60.08h24.4Z"/><path class="cls-1" d="m1485.48,207.71c-11.79,8.95-26.64,13.42-44.53,13.42-12.61,0-23.54-2.03-32.79-6.1-9.25-4.06-17.03-9.76-23.33-17.08-6.3-7.32-11.03-16.06-14.18-26.23-3.15-10.17-4.93-21.25-5.34-33.24,0-12,1.83-22.98,5.49-32.94,3.66-9.96,8.79-18.6,15.4-25.92,6.61-7.32,14.44-13.01,23.49-17.08,9.04-4.06,18.96-6.1,29.74-6.1,14.03,0,25.67,2.9,34.92,8.69,9.25,5.79,16.67,13.17,22.26,22.11,5.59,8.95,9.46,18.71,11.59,29.28,2.14,10.57,3,20.64,2.59,30.19h-118.04c-.21,6.92.61,13.47,2.44,19.67,1.83,6.21,4.78,11.69,8.84,16.47,4.07,4.78,9.25,8.59,15.55,11.44,6.3,2.85,13.73,4.27,22.27,4.27,10.98,0,19.98-2.54,26.99-7.62,7.02-5.08,11.64-12.81,13.88-23.18h25.62c-3.46,17.69-11.08,31.01-22.88,39.96Zm-6.25-101.26c-2.34-5.49-5.49-10.22-9.46-14.18-3.96-3.97-8.64-7.12-14.03-9.46-5.39-2.34-11.34-3.51-17.84-3.51s-12.76,1.17-18.15,3.51c-5.39,2.34-10.02,5.54-13.88,9.61-3.87,4.07-6.92,8.8-9.15,14.18-2.24,5.39-3.56,11.13-3.96,17.23h90.58c-.41-6.1-1.78-11.9-4.12-17.39Z"/><path class="cls-1" d="m1558.28,60.08v25.01h.61c10.77-19.11,27.85-28.67,51.24-28.67,10.37,0,19.01,1.43,25.93,4.27,6.91,2.85,12.5,6.81,16.77,11.9,4.27,5.08,7.27,11.13,9,18.15,1.72,7.02,2.59,14.79,2.59,23.33v103.7h-25.92v-106.75c0-9.76-2.85-17.48-8.54-23.18-5.69-5.69-13.52-8.54-23.48-8.54-7.93,0-14.79,1.22-20.59,3.66s-10.63,5.9-14.49,10.37c-3.87,4.48-6.76,9.71-8.69,15.71-1.94,6-2.9,12.56-2.9,19.67v89.06h-25.93V60.08h24.4Z"/><path class="cls-1" d="m1763.27,60.08v22.88h-31.42v97.91c0,3.05.25,5.49.76,7.32.5,1.83,1.47,3.25,2.9,4.27,1.42,1.02,3.4,1.68,5.95,1.98,2.54.31,5.84.46,9.91.46h11.89v22.88h-19.83c-6.71,0-12.46-.46-17.23-1.37-4.78-.92-8.64-2.59-11.59-5.03-2.95-2.44-5.14-5.9-6.56-10.37-1.42-4.47-2.13-10.37-2.13-17.69v-100.35h-26.84v-22.88h26.84V12.81h25.92v47.27h31.42Z"/><path class="cls-1" d="m1805.84,182.54c2.44,3.96,5.64,7.12,9.61,9.46,3.97,2.34,8.44,4.02,13.42,5.03,4.98,1.02,10.11,1.53,15.4,1.53,4.06,0,8.33-.31,12.81-.92,4.47-.61,8.59-1.73,12.35-3.35,3.76-1.62,6.86-4.01,9.3-7.17,2.44-3.15,3.66-7.17,3.66-12.05,0-6.71-2.54-11.79-7.62-15.25-5.08-3.46-11.44-6.25-19.06-8.39-7.62-2.14-15.91-4.06-24.86-5.79-8.95-1.73-17.23-4.17-24.86-7.32-7.62-3.15-13.98-7.57-19.06-13.27-5.08-5.69-7.62-13.62-7.62-23.79,0-7.93,1.78-14.74,5.34-20.44,3.56-5.69,8.13-10.32,13.72-13.88,5.59-3.56,11.9-6.2,18.91-7.93,7.02-1.73,13.98-2.59,20.89-2.59,8.95,0,17.18.76,24.71,2.29,7.52,1.52,14.18,4.17,19.98,7.93,5.79,3.76,10.42,8.84,13.88,15.25,3.46,6.4,5.49,14.39,6.1,23.94h-25.92c-.41-5.08-1.73-9.3-3.96-12.66-2.24-3.35-5.08-6.05-8.54-8.08-3.46-2.03-7.27-3.51-11.44-4.42-4.17-.92-8.39-1.37-12.66-1.37-3.86,0-7.78.31-11.74.92-3.96.61-7.58,1.68-10.83,3.2-3.25,1.52-5.9,3.56-7.93,6.1-2.03,2.54-3.05,5.85-3.05,9.91,0,4.47,1.57,8.19,4.73,11.13,3.15,2.95,7.17,5.39,12.05,7.32,4.88,1.94,10.37,3.56,16.47,4.88,6.1,1.32,12.2,2.7,18.3,4.12,6.51,1.43,12.86,3.15,19.06,5.19,6.2,2.04,11.69,4.73,16.47,8.08,4.77,3.35,8.64,7.58,11.59,12.66,2.95,5.08,4.42,11.39,4.42,18.91,0,9.56-1.98,17.49-5.95,23.79-3.96,6.31-9.15,11.39-15.55,15.25-6.41,3.87-13.62,6.56-21.66,8.08-8.04,1.52-16.01,2.29-23.94,2.29-8.75,0-17.08-.92-25.01-2.75-7.93-1.83-14.95-4.83-21.04-9-6.1-4.17-10.98-9.65-14.64-16.47-3.66-6.81-5.69-15.1-6.1-24.86h25.92c.2,5.69,1.53,10.52,3.96,14.49Z"/></svg>