<?xml version="1.0" encoding="UTF-8"?><svg id="Layer_1" xmlns="http://www.w3.org/2000/svg" viewBox="0 0 16 16.72"><defs><style>.cls-1,.cls-2{stroke-width:0px;}.cls-2{fill:#fff;}</style></defs><rect class="cls-2" x="0" width="16" height="16" rx="3" ry="3"/><path class="cls-1" d="m2.06,5.29v-.82h5.56v.82h-2.32v6.5h-.92v-6.5h-2.32Z"/><path class="cls-1" d="m7.33,6.49v1.12h.02c.2-.43.45-.75.74-.95.29-.21.66-.3,1.11-.29v.92c-.33,0-.61.05-.85.14-.23.1-.42.24-.56.42-.14.18-.25.41-.31.67-.06.26-.1.57-.1.91v2.36h-.83v-5.3h.78Z"/><path class="cls-1" d="m8.44,5.29v-.82h5.56v.82h-2.32v6.5h-.93v-6.5h-2.32Z"/></svg>